<?xml version="1.0" encoding="UTF-8"?>
<svg xmlns="http://www.w3.org/2000/svg" width="14" height="14" viewBox="0 0 14 14">
  <path fill="rgb(255, 85, 0)" fill-rule="evenodd" d="M5.542 1.167c2.107 0 2.795 2.246 1.61 5.332-.444.793.03 1.211.322 1.332 2.026.836 2.875 2.213 3.026 3.836v.583H.583v-.583c.151-1.623 1-3 3.026-3.836.292-.12.766-.54.322-1.331-1.184-3.095-.497-5.333 1.61-5.333zM13.47 3.18l.058.05.23.228a.415.415 0 0 1 .057.526l-.053.065-2.714 2.714a.409.409 0 0 1-.5.066l-.045-.03-.043-.038-1.472-1.472a.422.422 0 0 1-.051-.527l.054-.066.229-.23a.415.415 0 0 1 .528-.055l.065.053.942.943 2.182-2.183a.41.41 0 0 1 .533-.044z"/>
</svg>
