<?xml version="1.0" encoding="UTF-8"?>
<svg xmlns="http://www.w3.org/2000/svg" width="14" height="14" viewBox="0 0 14 14">
  <path fill="rgb(34, 34, 34)" fill-rule="nonzero" d="M5.542 1.167c2.77 0 3.386 2.916 2.155 6.125 3.169 1.308 3.386 3.977 3.386 4.958H0c0-.981.218-3.65 3.387-4.958-1.232-3.218-.616-6.125 2.155-6.125zm0 1.166c-1.584 0-2.127 1.77-1.066 4.542.226.59-.06 1.254-.644 1.495-1.517.626-2.263 1.572-2.537 2.713h8.494c-.275-1.141-1.02-2.087-2.537-2.713a1.167 1.167 0 0 1-.644-1.496c1.06-2.764.516-4.54-1.066-4.54zm6.414-.583c.17 0 .294.13.294.292V3.5h1.458c.157 0 .292.132.292.294v.578c0 .17-.13.295-.292.295H12.25v1.458a.296.296 0 0 1-.294.292h-.578a.289.289 0 0 1-.295-.292V4.667H9.625a.296.296 0 0 1-.292-.295v-.578c0-.17.131-.294.292-.294h1.458V2.042c0-.157.132-.292.295-.292h.578z"/>
</svg>
