<svg xmlns="http://www.w3.org/2000/svg" xmlns:xlink="http://www.w3.org/1999/xlink" width="15" height="15" viewBox="0 0 15 15"><defs><style>.a,.c{fill:#fff;}.a{stroke:#707070;}.b{clip-path:url(#a);}</style><clipPath id="a"><rect class="a" width="15" height="15" transform="translate(711 103)"/></clipPath></defs><g class="b" transform="translate(-711 -103)"><path class="c" d="M5.938,1.25c2.968,0,3.628,3.124,2.309,6.563a5.494,5.494,0,0,1,3.628,5.312H0A5.5,5.5,0,0,1,3.629,7.813C2.309,4.365,2.969,1.25,5.938,1.25Zm0,1.249c-1.7,0-2.279,1.9-1.142,4.866a1.25,1.25,0,0,1-.69,1.6,4.134,4.134,0,0,0-2.718,2.907h9.1A4.136,4.136,0,0,0,7.77,8.968a1.25,1.25,0,0,1-.69-1.6C8.216,4.4,7.633,2.5,5.938,2.5Zm6.872-.625a.308.308,0,0,1,.315.313V3.75h1.562A.317.317,0,0,1,15,4.065v.619A.309.309,0,0,1,14.687,5H13.125V6.563a.317.317,0,0,1-.315.313h-.619a.31.31,0,0,1-.316-.313V5H10.313A.317.317,0,0,1,10,4.684V4.065a.309.309,0,0,1,.313-.315h1.562V2.188a.317.317,0,0,1,.316-.313h.619Z" transform="translate(711 103.312)"/></g></svg>