<svg xmlns="http://www.w3.org/2000/svg" xmlns:xlink="http://www.w3.org/1999/xlink" width="20" height="20" viewBox="0 0 20 20"><defs><style>.a{fill:#fff;stroke:#707070;}.b{clip-path:url(#a);}.c{fill:#e6e5e5;}</style><clipPath id="a"><rect class="a" width="20" height="20" transform="translate(670 393)"/></clipPath></defs><g class="b" transform="translate(-670 -393)"><g transform="translate(670 393.01)"><g transform="translate(0 0)"><path class="c" d="M10.351,10.253A1.059,1.059,0,0,0,9.293,9.2l-.066,0v.134c.022,0,.044,0,.066,0a.925.925,0,0,1,0,1.85l-.044,0v.4H8.92v.177h.746v-.177H9.381v-.266A1.059,1.059,0,0,0,10.351,10.253Z" transform="translate(1.509 1.546)"/><path class="c" d="M6.027,4.292l-.091.095.122.1.123-.1Z" transform="translate(1.004 0.716)"/><path class="c" d="M1.392,4.12l-.011-.112q-.142.223-.273.452Z" transform="translate(0.187 0.668)"/><path class="c" d="M4.144,2.127V1.972h-.36l-.02.074H3.546v.217H4.04Z" transform="translate(0.6 0.324)"/><path class="c" d="M16.94,6.576l.071.132c-.012-.056-.026-.113-.039-.168Z" transform="translate(2.866 1.097)"/><path class="c" d="M5.481,4.648l.188-.035.15-.1v-.2H5.481Z" transform="translate(0.927 0.721)"/><path class="c" d="M16.5,5.123c-.073-.164-.152-.327-.235-.487l-.063.071v.439l.2-.026Z" transform="translate(2.741 0.774)"/><path class="c" d="M4.135,2.65s.018-.217,0-.217S3.9,2.47,3.9,2.47l-.351.1.094.111Z" transform="translate(0.6 0.402)"/><path class="c" d="M15.213,3.515l.2-.291q-.238-.288-.5-.558v.484l-.432.216.043.143Z" transform="translate(2.45 0.441)"/><path class="c" d="M4.84,3.389,4.6,3.333l-.263.125.162.329.256-.081Z" transform="translate(0.734 0.554)"/><path class="c" d="M5.625,4.049v.236l.207-.05Z" transform="translate(0.952 0.675)"/><path class="c" d="M5.171,3.974l-.288.118-.056.142.226.062h.6v-.2H5.566V3.974Z" transform="translate(0.817 0.663)"/><path class="c" d="M18.9,6.349l-.263-.286-.05-.458-.269.145-.146.561L17.788,5.9l-.015-.387L17.4,5.2l-.138-.137h-.435l.137.384.524.288.091.1-.113.056,0,.3-.256.105-.217-.048-.136-.191.353.019.1-.127-.784-.523L16.464,5.2l-.32.285-.324-.066-.492.632-.1.248-.315.028-.466,0L14.174,6.2l-.082-.547.1-.26.474-.1.516.1.063-.283-.22-.052.076-.44.52-.08.364-.508.375-.062.339.05h.124l-.069-.477-.412.164L16.2,3.351l-.239-.033-.044-.244.2-.21.463-.18.12-.211a10.077,10.077,0,0,0-4.73-2.3L11.841.15C11.657.117,11.468.1,11.279.072a10.418,10.418,0,0,0-1.13-.064A10.181,10.181,0,0,0,4.232,1.892l.421,0,.226.124.426.09.034.166.676.025-.092-.215-.6-.016.142-.132-.05-.157H4.871l.594-.438h.568L6.3,1.7l.443.025.266-.257.2.1-.368.355-.484.008a1.627,1.627,0,0,1,.042.347l.618-.016.067-.165.426-.025.05-.247-.25-.042.083-.223L7.586,1.5l.668.033-.368.331.06.256.384.058L8.3,1.716l.368-.19.652-.074.944.413V2.22l.3.074-.151.28H9.992L9.866,2.9,8.891,2.67l.765-.4-.291-.245L8.706,2.1l-.059.059h0l-.011.014-.19.195L8.13,2.4l.025.155.109.044,0,.052L8,2.685l-.018.147-.245.013L7.7,2.553l-.439.132-.9.519.1.365.251.162.5.068v.563l.232-.037.213-.44.534-.167V3.042l.3-.221.716.167-.05.446h.192l.527-.256.025.586L10.283,4l-.016.347L9.9,4.466l.025.115.442.2-.008.239-.129.011a.016.016,0,0,0,0-.006l-.559-.17-.023-.178h0l.163-.111V4.4L9.634,4.36l-.043.149-.309.047-.031-.011v.015l-.106.016L9.058,4.4l-.1-.043H8.738l-.1.08v.18l.188.061.185.026-.042.018-.17.185-.074-.093-.163-.042-.446.414.059.047L7.519,5.6,6.9,6.233l-.042.283-.62.4-.308.305.034.611-.427-.2,0-.358H4.356l-.614.308-.266.486-.106.386.173.374.484.058L4.8,8.383l.067.252-.235.438.586.1.058.893.073.013h0l.008,0,.721.121.51-.582.619.125.217.3.594-.035.016-.173.327.157.368.569.635.009.235.4.033.5.7.264.885.008.259.42.392.124-.074.347-.431.54-.125,1.2-.389.3-.576-.017-.193.33.143.62-.627.792-.2.364-.6.285L8.4,17.1l-.016.165.276.078-.033.178-.247.234.15.186.3.009-.016.227-.079.223-.025.182.439.366-.059.19-.6-.011L7.9,18.617l-.464-.806.065-.778-.351-.463.142-.783-.207-.059v-1.7s-.586-.439-.619-.439-.309-.073-.309-.073L6.1,13.194l-.761-.942.075-.338.025-.553L5.961,11l-.074-.619-.769-.057-.6-.677L4.09,9.528l-.276-.05.034-.248L3.5,9.18v.14l-.877-.215-.353-.534.123-.219H2.244L2.2,8.212l.1-.052-.45-.649-.1-.586H1.533l.076.57.384.586-.042.232-.326-.05-.4-.676V6.8L.807,6.6V6.124A9.922,9.922,0,0,0,.275,7.74l.138-.028L.494,8.1l.172.275.114.13.207.08-.2.23-.38.037H.122l.032-.335.237-.049L.371,8.311l-.2-.123A10,10,0,0,0,0,9.979a10.074,10.074,0,0,0,17.851,6.212h-.331v-.661l-.384-.511v-.8l-.292-.287-.025-.331.371-.7-.705-1.23.084-.835-.634-.065-.235-.231h-.426l-.217.2H14.3l-.025.066H13.86L12.9,9.725l.006-.843.159-.058.059-.322H12.9l-.093-.339,1.112-.792V6.811l.544-.3.22.022h.448l.35-.185,1.128-.087v.57l.89.223.176.124h.163V6.869l.513-.049.488.359h.8l.056-.05c-.078-.268-.169-.53-.271-.788Zm-14.545,3.9-.191.026V9.851l.062-.069q.122.235.231.477Zm.651,1.741.031-.036.04.166Z" transform="translate(0 -0.008)"/><path class="c" d="M4.794,4.814l.176.093L5.4,4.32H5.064l-.232.247Z" transform="translate(0.811 0.721)"/><path class="c" d="M5.84,4.5v.179l.088.125h.319V4.616L5.865,4.5Z" transform="translate(0.988 0.752)"/><path class="c" d="M5.509,4.764l-.15.012-.05.217h.319l.145-.143V4.658l-.232.031Z" transform="translate(0.898 0.778)"/><path class="c" d="M4.284,10.266l.07.129-.04-.166Z" transform="translate(0.725 1.721)"/><path class="c" d="M3.565,8.437v.429l.191-.026.1,0c-.072-.161-.15-.319-.231-.477Z" transform="translate(0.603 1.406)"/><path class="c" d="M4.573,8.622h.006l-.007,0Z" transform="translate(0.773 1.449)"/><path class="c" d="M1.92,7.173l.145,0,.022-.04-.106-.153-.1.052Z" transform="translate(0.318 1.171)"/><path class="c" d="M.353,7.2l.021.157L.137,7.4.1,7.739H.391L.77,7.7l.2-.231-.207-.08-.115-.13L.472,6.987.391,6.6l-.138.028-.023,0c-.033.143-.062.288-.089.433l.016.01Z" transform="translate(0.018 1.107)"/></g></g></g></svg>