<svg xmlns="http://www.w3.org/2000/svg" xmlns:xlink="http://www.w3.org/1999/xlink" width="28" height="28" viewBox="0 0 28 28"><defs><style>.a{fill:#fff}.b{fill:url(#a)}</style><linearGradient id="a" x1=".5" x2=".5" y2="1" gradientUnits="objectBoundingBox"><stop offset="0" stop-color="#f70"/><stop offset="1" stop-color="#f30"/></linearGradient></defs><g transform="translate(-959 -9)"><circle cx="14" cy="14" r="14" class="a" transform="translate(959 9)"/><path d="M-1744.693-359.915h0A14.023,14.023,0,0,1-1750-370.94a14,14,0,0,1,4.1-9.942A13.878,13.878,0,0,1-1736-385a13.879,13.879,0,0,1,9.9,4.118,14,14,0,0,1,4.1,9.942,14.018,14.018,0,0,1-5.306,11.022,8.88,8.88,0,0,0-6.246-7.031,4.664,4.664,0,0,0,2.219-3.991,4.682,4.682,0,0,0-4.667-4.687,4.682,4.682,0,0,0-4.667,4.687,4.665,4.665,0,0,0,2.219,3.991,8.874,8.874,0,0,0-6.245,7.032Z" class="b" transform="translate(2709 394)"/></g></svg>